<mxfile host="app.diagrams.net" agent="Mozilla/5.0 (Macintosh; Intel Mac OS X 10_15_7) AppleWebKit/537.36 (KHTML, like Gecko) Chrome/129.0.0.0 Safari/537.36" version="24.7.17">
  <diagram name="第 1 页" id="AC8DBh2cLW7XNuaia8dv">
    <mxGraphModel dx="1026" dy="650" grid="1" gridSize="10" guides="1" tooltips="1" connect="1" arrows="1" fold="1" page="1" pageScale="1" pageWidth="827" pageHeight="1169" math="0" shadow="0">
      <root>
        <mxCell id="0" />
        <mxCell id="1" parent="0" />
        <mxCell id="Vv9Ehzvo7FpeQ46JXiqg-3" value="" style="edgeStyle=orthogonalEdgeStyle;rounded=0;orthogonalLoop=1;jettySize=auto;html=1;" edge="1" parent="1" source="Vv9Ehzvo7FpeQ46JXiqg-1" target="Vv9Ehzvo7FpeQ46JXiqg-2">
          <mxGeometry relative="1" as="geometry" />
        </mxCell>
        <mxCell id="Vv9Ehzvo7FpeQ46JXiqg-1" value="标签刷新" style="ellipse;whiteSpace=wrap;html=1;" vertex="1" parent="1">
          <mxGeometry x="350" y="80" width="80" height="50" as="geometry" />
        </mxCell>
        <mxCell id="Vv9Ehzvo7FpeQ46JXiqg-5" value="" style="edgeStyle=orthogonalEdgeStyle;rounded=0;orthogonalLoop=1;jettySize=auto;html=1;" edge="1" parent="1" source="Vv9Ehzvo7FpeQ46JXiqg-2" target="Vv9Ehzvo7FpeQ46JXiqg-4">
          <mxGeometry relative="1" as="geometry" />
        </mxCell>
        <mxCell id="Vv9Ehzvo7FpeQ46JXiqg-7" value="" style="edgeStyle=orthogonalEdgeStyle;rounded=0;orthogonalLoop=1;jettySize=auto;html=1;" edge="1" parent="1" source="Vv9Ehzvo7FpeQ46JXiqg-2" target="Vv9Ehzvo7FpeQ46JXiqg-6">
          <mxGeometry relative="1" as="geometry" />
        </mxCell>
        <mxCell id="Vv9Ehzvo7FpeQ46JXiqg-2" value="校验标签&lt;div&gt;是否存在&lt;/div&gt;" style="rhombus;whiteSpace=wrap;html=1;" vertex="1" parent="1">
          <mxGeometry x="335" y="180" width="110" height="65" as="geometry" />
        </mxCell>
        <mxCell id="Vv9Ehzvo7FpeQ46JXiqg-4" value="返回不存在信息" style="whiteSpace=wrap;html=1;" vertex="1" parent="1">
          <mxGeometry x="160" y="191.25" width="100" height="42.5" as="geometry" />
        </mxCell>
        <mxCell id="Vv9Ehzvo7FpeQ46JXiqg-9" value="" style="edgeStyle=orthogonalEdgeStyle;rounded=0;orthogonalLoop=1;jettySize=auto;html=1;" edge="1" parent="1" source="Vv9Ehzvo7FpeQ46JXiqg-6" target="Vv9Ehzvo7FpeQ46JXiqg-8">
          <mxGeometry relative="1" as="geometry" />
        </mxCell>
        <mxCell id="Vv9Ehzvo7FpeQ46JXiqg-13" value="" style="edgeStyle=orthogonalEdgeStyle;rounded=0;orthogonalLoop=1;jettySize=auto;html=1;" edge="1" parent="1" source="Vv9Ehzvo7FpeQ46JXiqg-6" target="Vv9Ehzvo7FpeQ46JXiqg-12">
          <mxGeometry relative="1" as="geometry" />
        </mxCell>
        <mxCell id="Vv9Ehzvo7FpeQ46JXiqg-6" value="校验标签是否&lt;div&gt;处于更新中&lt;/div&gt;" style="rhombus;whiteSpace=wrap;html=1;" vertex="1" parent="1">
          <mxGeometry x="330" y="300" width="120" height="82.5" as="geometry" />
        </mxCell>
        <mxCell id="Vv9Ehzvo7FpeQ46JXiqg-8" value="返回更新中" style="whiteSpace=wrap;html=1;" vertex="1" parent="1">
          <mxGeometry x="155" y="320.63" width="110" height="41.25" as="geometry" />
        </mxCell>
        <mxCell id="Vv9Ehzvo7FpeQ46JXiqg-15" value="" style="edgeStyle=orthogonalEdgeStyle;rounded=0;orthogonalLoop=1;jettySize=auto;html=1;" edge="1" parent="1" source="Vv9Ehzvo7FpeQ46JXiqg-12" target="Vv9Ehzvo7FpeQ46JXiqg-14">
          <mxGeometry relative="1" as="geometry" />
        </mxCell>
        <mxCell id="Vv9Ehzvo7FpeQ46JXiqg-16" value="提交失败" style="edgeLabel;html=1;align=center;verticalAlign=middle;resizable=0;points=[];" vertex="1" connectable="0" parent="Vv9Ehzvo7FpeQ46JXiqg-15">
          <mxGeometry x="-0.06" y="-2" relative="1" as="geometry">
            <mxPoint as="offset" />
          </mxGeometry>
        </mxCell>
        <mxCell id="Vv9Ehzvo7FpeQ46JXiqg-18" value="" style="edgeStyle=orthogonalEdgeStyle;rounded=0;orthogonalLoop=1;jettySize=auto;html=1;" edge="1" parent="1" source="Vv9Ehzvo7FpeQ46JXiqg-12" target="Vv9Ehzvo7FpeQ46JXiqg-17">
          <mxGeometry relative="1" as="geometry" />
        </mxCell>
        <mxCell id="Vv9Ehzvo7FpeQ46JXiqg-12" value="提交任务至&lt;div&gt;odps&lt;/div&gt;" style="shape=step;perimeter=stepPerimeter;whiteSpace=wrap;html=1;fixedSize=1;" vertex="1" parent="1">
          <mxGeometry x="330" y="420" width="120" height="60" as="geometry" />
        </mxCell>
        <mxCell id="Vv9Ehzvo7FpeQ46JXiqg-14" value="返回失败" style="whiteSpace=wrap;html=1;" vertex="1" parent="1">
          <mxGeometry x="160" y="430" width="100" height="40" as="geometry" />
        </mxCell>
        <mxCell id="Vv9Ehzvo7FpeQ46JXiqg-20" value="" style="edgeStyle=orthogonalEdgeStyle;rounded=0;orthogonalLoop=1;jettySize=auto;html=1;" edge="1" parent="1" source="Vv9Ehzvo7FpeQ46JXiqg-17" target="Vv9Ehzvo7FpeQ46JXiqg-19">
          <mxGeometry relative="1" as="geometry" />
        </mxCell>
        <mxCell id="Vv9Ehzvo7FpeQ46JXiqg-17" value="写入刷新记录表" style="shape=process;whiteSpace=wrap;html=1;backgroundOutline=1;" vertex="1" parent="1">
          <mxGeometry x="330" y="525" width="120" height="60" as="geometry" />
        </mxCell>
        <mxCell id="Vv9Ehzvo7FpeQ46JXiqg-22" value="" style="edgeStyle=orthogonalEdgeStyle;rounded=0;orthogonalLoop=1;jettySize=auto;html=1;" edge="1" parent="1" source="Vv9Ehzvo7FpeQ46JXiqg-19" target="Vv9Ehzvo7FpeQ46JXiqg-21">
          <mxGeometry relative="1" as="geometry" />
        </mxCell>
        <mxCell id="Vv9Ehzvo7FpeQ46JXiqg-19" value="修改基础信息表更新状态" style="shape=process;whiteSpace=wrap;html=1;backgroundOutline=1;" vertex="1" parent="1">
          <mxGeometry x="330" y="620" width="120" height="60" as="geometry" />
        </mxCell>
        <mxCell id="Vv9Ehzvo7FpeQ46JXiqg-21" value="返回任务提交成功" style="whiteSpace=wrap;html=1;" vertex="1" parent="1">
          <mxGeometry x="520" y="620" width="120" height="60" as="geometry" />
        </mxCell>
      </root>
    </mxGraphModel>
  </diagram>
</mxfile>
